<svg xmlns="http://www.w3.org/2000/svg" width="800" height="800" viewBox="0 0 800 800" version="1.1"><path d="M 327.500 198.984 C 310.776 203.341, 299.683 209.730, 287.956 221.761 C 277.704 232.278, 271.739 242.025, 266.940 256.101 C 261.405 272.334, 261.727 264.168, 261.005 406.500 C 260.550 496.358, 259.985 540.096, 259.237 543.500 C 258.159 548.404, 256.622 553.528, 255.037 557.500 C 254.598 558.600, 253.427 561.525, 252.435 564 C 247.823 575.499, 231.826 594.758, 224.294 597.878 C 221.357 599.095, 220.827 598.976, 216.816 596.197 C 202.837 586.512, 190.836 568.788, 186.050 550.757 C 182.210 536.295, 181.924 530.518, 181.352 456 C 181.042 415.575, 180.607 382.308, 180.384 382.073 C 180.161 381.838, 179.196 382.525, 178.239 383.601 C 177.283 384.676, 174.514 387.793, 172.086 390.528 C 168.084 395.037, 155.304 408.752, 133.476 431.967 C 129.063 436.660, 123.438 442.727, 120.976 445.450 C 110.781 456.723, 103.472 464.596, 101.789 466.117 C 100.151 467.598, 100.001 470.089, 100.013 495.617 C 100.030 530.803, 101.816 542.654, 109.716 560 C 111.094 563.025, 112.620 566.400, 113.108 567.500 C 114.062 569.650, 116.181 573.185, 117.006 574 C 117.284 574.275, 118.843 576.284, 120.470 578.464 C 124.239 583.515, 129.485 588.761, 134.536 592.530 C 136.716 594.157, 138.725 595.750, 139 596.070 C 139.275 596.389, 141.075 597.517, 143 598.575 C 144.925 599.634, 146.725 600.746, 147 601.046 C 148.115 602.265, 160.236 606.972, 166.651 608.679 C 181.114 612.525, 205.650 610.300, 217.945 604.028 C 221.075 602.431, 222.072 602.321, 224.091 603.350 C 238.659 610.774, 260.925 612.889, 278 608.472 C 304.535 601.608, 326.624 580.863, 335.882 554.113 C 341.754 537.145, 341.353 546.808, 342.018 406 C 342.565 289.901, 342.804 275.620, 344.322 268 C 347.535 251.878, 353.895 236.457, 360.983 227.605 C 365.184 222.359, 375.335 213.159, 379.858 210.500 C 382.664 208.850, 384.969 207.204, 384.980 206.843 C 385.015 205.690, 370.756 200.273, 363.303 198.608 C 353.558 196.431, 336.615 196.609, 327.500 198.984 M 415.500 197.649 C 405.162 199.802, 397.196 202.430, 392.202 205.335 L 388.904 207.254 394.189 210.813 C 399.570 214.437, 415 229.391, 415 230.983 C 415 231.464, 415.582 232.452, 416.294 233.179 C 417.887 234.806, 424.206 247.234, 425.864 252 C 426.534 253.925, 428.014 259.550, 429.153 264.500 C 431.177 273.292, 431.234 276.337, 431.597 396.500 C 431.819 470.211, 432.375 523.184, 432.982 528.694 C 434.976 546.768, 438.926 557.588, 449.523 574 C 457.640 586.571, 470.677 597.097, 486.283 603.679 C 504.907 611.533, 522.783 611.885, 542 604.777 C 551.504 601.262, 557.215 597.895, 554.924 597.158 C 554.141 596.906, 553.275 596.415, 553 596.067 C 552.725 595.719, 550.250 594.009, 547.500 592.266 C 540.766 587.999, 530 577.458, 530 575.131 C 530 574.644, 529.376 573.727, 528.613 573.094 C 527.293 571.998, 521.097 560.014, 519.002 554.505 C 518.459 553.078, 517.018 547.543, 515.799 542.205 C 513.588 532.528, 513.580 532.135, 513.035 404 C 512.525 284.007, 512.369 275.070, 510.677 269 C 507.094 256.142, 505.694 252.347, 500.844 242.350 C 496.763 233.939, 494.514 230.759, 487.710 223.784 C 477.073 212.880, 474.345 210.818, 463.509 205.493 C 451.484 199.583, 440.299 196.984, 427.500 197.123 C 422 197.183, 416.600 197.419, 415.500 197.649 M 569 199.376 C 560.506 201.621, 551.587 205.240, 550.596 206.845 C 550.307 207.313, 553.092 209.767, 556.785 212.299 C 568.459 220.302, 576.992 230.074, 582.374 241.603 C 583.889 244.846, 585.549 248.281, 586.064 249.236 C 586.579 250.191, 587 251.789, 587 252.786 C 587 253.784, 587.399 255.028, 587.888 255.550 C 588.376 256.073, 589.563 260.100, 590.525 264.500 C 592.010 271.287, 592.345 279.652, 592.735 319.681 L 593.194 366.863 582.847 377.278 C 577.156 383.007, 569.598 390.800, 566.051 394.597 C 562.503 398.394, 553.953 407.384, 547.051 414.574 C 540.148 421.765, 531.237 431.049, 527.250 435.205 C 523.263 439.361, 520 443.040, 520 443.380 C 520 444.291, 542.262 444.106, 568.437 442.976 C 586.625 442.192, 591.539 442.247, 592.172 443.243 C 592.610 443.935, 592.985 462.725, 593.005 485 C 593.042 527.891, 593.569 534.588, 598.002 548.495 C 605.696 572.633, 623.049 592.878, 644.143 602.323 C 653.231 606.393, 654.836 606.939, 662.283 608.493 C 671.552 610.426, 683.098 610.412, 691.530 608.457 C 701.774 606.081, 717 599.896, 717 598.111 C 717 597.702, 715.247 596.383, 713.105 595.179 C 710.962 593.975, 707.475 591.427, 705.355 589.518 C 703.235 587.609, 701.197 586.036, 700.826 586.023 C 700.455 586.010, 697.626 582.962, 694.539 579.250 C 689.083 572.688, 681.907 560.057, 680.762 555 C 680.450 553.625, 679.231 549.171, 678.053 545.102 C 674.693 533.498, 674.337 518.619, 674.741 406.737 C 675.187 283.668, 674.953 278.292, 668.172 255.500 C 667.027 251.652, 661.137 239.746, 657.646 234.225 C 648.965 220.493, 632.831 207.594, 617 201.728 C 602.635 196.406, 583.743 195.480, 569 199.376" stroke="none" fill="#074e2e" fill-rule="evenodd"/></svg>