<svg xmlns="http://www.w3.org/2000/svg" viewBox="0 0 175.216 175.552">
  <defs>
    <linearGradient id="wa_grad" x1="85.915" x2="86.535" y1="32.567" y2="137.092" gradientUnits="userSpaceOnUse">
      <stop offset="0" stop-color="#57d163"/>
      <stop offset="1" stop-color="#23b33a"/>
    </linearGradient>
    <linearGradient id="wa_grad2" x1="85.915" x2="86.535" y1="32.567" y2="137.092" gradientUnits="userSpaceOnUse">
      <stop offset="0" stop-color="#b9f4bb"/>
      <stop offset="1" stop-color="#74e98a"/>
    </linearGradient>
  </defs>
  <path fill="#b3b3b3" d="M87.184 25.227c-33.733 0-61.166 27.423-61.178 61.13a60.98 60.98 0 0 0 9.349 32.535l1.455 2.312-6.179 22.535 23.119-6.057 2.23 1.324c9.37 5.558 20.131 8.489 31.126 8.494h.023c33.707 0 61.14-27.426 61.153-61.135a60.75 60.75 0 0 0-17.895-43.251 60.75 60.75 0 0 0-43.203-17.987z"/>
  <path fill="url(#wa_grad)" d="M87.184 32.227c-29.903 0-54.166 24.254-54.178 54.13a53.96 53.96 0 0 0 8.276 28.763l1.288 2.048-5.474 19.959 20.484-5.366 1.974 1.172c8.298 4.924 17.843 7.528 27.585 7.532h.02c29.89 0 54.153-24.257 54.164-54.135a53.75 53.75 0 0 0-15.846-38.296 53.75 53.75 0 0 0-38.293-15.807z"/>
  <path fill="#fff" fill-rule="evenodd" d="M68.772 55.603c-1.378-3.061-2.828-3.123-4.137-3.176l-3.524-.043c-1.218 0-3.203.457-4.882 2.28-1.678 1.824-6.41 6.622-6.41 16.157s6.565 18.73 7.484 20.006c.919 1.258 12.857 20.674 31.657 28.154 15.645 6.18 18.832 4.95 22.227 4.639 3.395-.311 10.964-4.484 12.503-8.817 1.54-4.334 1.54-8.049 1.078-8.817-.462-.767-1.68-1.229-3.52-2.14-1.839-.912-10.886-5.368-12.574-5.978-1.688-.61-2.917-.913-4.137.914-1.219 1.824-4.722 5.978-5.941 7.207-1.22 1.229-2.44 1.381-4.279.457-1.839-.915-7.758-2.857-14.782-9.12-5.465-4.873-9.154-10.891-10.234-12.717-1.081-1.824-.115-2.812.813-3.721.834-.82 1.838-2.14 2.757-3.21.92-1.073 1.225-1.824 1.838-3.053.612-1.229.306-2.302-.153-3.215-.458-.913-4.057-10.448-5.736-14.308"/>
</svg>
